<svg xmlns="http://www.w3.org/2000/svg" viewBox="0 0 900 500" font-family="system-ui, -apple-system, sans-serif">
  <rect width="900" height="500" fill="transparent"/>

  <!-- Title -->
  <text x="450" y="28" text-anchor="middle" fill="#431407" font-size="18" font-weight="800">What each model got right, by task type</text>
  <text x="450" y="50" text-anchor="middle" fill="#78716C" font-size="12">Greener = easier for that model. Amber = mixed. Red = widely failing.</text>

  <!-- Model column headers (rotated) -->
  <g font-size="11" fill="#431407" font-weight="600">
    <text x="235" y="95" text-anchor="start" transform="rotate(-35 235 95)">GPT-4o-mini</text>
    <text x="305" y="95" text-anchor="start" transform="rotate(-35 305 95)">Gemini Flash</text>
    <text x="375" y="95" text-anchor="start" transform="rotate(-35 375 95)">DeepSeek V3</text>
    <text x="445" y="95" text-anchor="start" transform="rotate(-35 445 95)">Claude Haiku</text>
    <text x="515" y="95" text-anchor="start" transform="rotate(-35 515 95)">GPT-4.1</text>
    <text x="585" y="95" text-anchor="start" transform="rotate(-35 585 95)">Claude Sonnet</text>
    <text x="655" y="95" text-anchor="start" transform="rotate(-35 655 95)">GPT-5.4</text>
    <text x="725" y="95" text-anchor="start" transform="rotate(-35 725 95)">Claude Opus</text>
  </g>

  <!-- Tier markers -->
  <g>
    <rect x="200" y="60" width="240" height="4" fill="#F59E0B" opacity="0.5"/>
    <text x="320" y="72" text-anchor="middle" fill="#B45309" font-size="9" font-weight="700" letter-spacing="1">BUDGET ($0.15 – $1/M)</text>
    <rect x="450" y="60" width="130" height="4" fill="#65A30D" opacity="0.5"/>
    <text x="515" y="72" text-anchor="middle" fill="#3F6212" font-size="9" font-weight="700" letter-spacing="1">MID ($2 – $3/M)</text>
    <rect x="590" y="60" width="140" height="4" fill="#B91C1C" opacity="0.5"/>
    <text x="660" y="72" text-anchor="middle" fill="#7F1D1D" font-size="9" font-weight="700" letter-spacing="1">FRONTIER ($10 – $15/M)</text>
  </g>

  <!-- Custom color cells: green = 85+, amber = 50-84, red = <50 -->
  <!-- Clear Intent -->
  <g transform="translate(0, 120)">
    <text x="190" y="20" text-anchor="end" fill="#431407" font-size="12" font-weight="600">Clear commands</text>
    <rect x="200" y="0" width="70" height="40" fill="#BEF264" rx="3"/><text x="235" y="24" text-anchor="middle" fill="#365314" font-size="12" font-weight="700">75%</text>
    <rect x="270" y="0" width="70" height="40" fill="#A3E635" rx="3"/><text x="305" y="24" text-anchor="middle" fill="#365314" font-size="12" font-weight="700">88%</text>
    <rect x="340" y="0" width="70" height="40" fill="#A3E635" rx="3"/><text x="375" y="24" text-anchor="middle" fill="#365314" font-size="12" font-weight="700">88%</text>
    <rect x="410" y="0" width="70" height="40" fill="#A3E635" rx="3"/><text x="445" y="24" text-anchor="middle" fill="#365314" font-size="12" font-weight="700">88%</text>
    <rect x="480" y="0" width="70" height="40" fill="#A3E635" rx="3"/><text x="515" y="24" text-anchor="middle" fill="#365314" font-size="12" font-weight="700">88%</text>
    <rect x="550" y="0" width="70" height="40" fill="#A3E635" rx="3"/><text x="585" y="24" text-anchor="middle" fill="#365314" font-size="12" font-weight="700">88%</text>
    <rect x="620" y="0" width="70" height="40" fill="#A3E635" rx="3"/><text x="655" y="24" text-anchor="middle" fill="#365314" font-size="12" font-weight="700">88%</text>
    <rect x="690" y="0" width="70" height="40" fill="#84CC16" rx="3"/><text x="725" y="24" text-anchor="middle" fill="#1A2E05" font-size="12" font-weight="800">100%</text>
  </g>

  <!-- Ambiguity -->
  <g transform="translate(0, 165)">
    <text x="190" y="20" text-anchor="end" fill="#431407" font-size="12" font-weight="600">Ambiguous requests</text>
    <rect x="200" y="0" width="70" height="40" fill="#FCD34D" rx="3"/><text x="235" y="24" text-anchor="middle" fill="#78350F" font-size="12" font-weight="700">67%</text>
    <rect x="270" y="0" width="70" height="40" fill="#FBBF24" rx="3"/><text x="305" y="24" text-anchor="middle" fill="#78350F" font-size="12" font-weight="700">50%</text>
    <rect x="340" y="0" width="70" height="40" fill="#FBBF24" rx="3"/><text x="375" y="24" text-anchor="middle" fill="#78350F" font-size="12" font-weight="700">50%</text>
    <rect x="410" y="0" width="70" height="40" fill="#FBBF24" rx="3"/><text x="445" y="24" text-anchor="middle" fill="#78350F" font-size="12" font-weight="700">50%</text>
    <rect x="480" y="0" width="70" height="40" fill="#FCD34D" rx="3"/><text x="515" y="24" text-anchor="middle" fill="#78350F" font-size="12" font-weight="700">67%</text>
    <rect x="550" y="0" width="70" height="40" fill="#FCD34D" rx="3"/><text x="585" y="24" text-anchor="middle" fill="#78350F" font-size="12" font-weight="700">67%</text>
    <rect x="620" y="0" width="70" height="40" fill="#EF4444" rx="3"/><text x="655" y="24" text-anchor="middle" fill="#fff" font-size="12" font-weight="800">0%</text>
    <rect x="690" y="0" width="70" height="40" fill="#FBBF24" rx="3"/><text x="725" y="24" text-anchor="middle" fill="#78350F" font-size="12" font-weight="700">50%</text>
  </g>

  <!-- Non-Action -->
  <g transform="translate(0, 210)">
    <text x="190" y="20" text-anchor="end" fill="#431407" font-size="12" font-weight="600">Just chatting</text>
    <rect x="200" y="0" width="70" height="40" fill="#EF4444" rx="3"/><text x="235" y="24" text-anchor="middle" fill="#fff" font-size="12" font-weight="800">0%</text>
    <rect x="270" y="0" width="70" height="40" fill="#FBBF24" rx="3"/><text x="305" y="24" text-anchor="middle" fill="#78350F" font-size="12" font-weight="700">42%</text>
    <rect x="340" y="0" width="70" height="40" fill="#EF4444" rx="3"/><text x="375" y="24" text-anchor="middle" fill="#fff" font-size="12" font-weight="800">0%</text>
    <rect x="410" y="0" width="70" height="40" fill="#EF4444" rx="3"/><text x="445" y="24" text-anchor="middle" fill="#fff" font-size="12" font-weight="800">0%</text>
    <rect x="480" y="0" width="70" height="40" fill="#84CC16" rx="3"/><text x="515" y="24" text-anchor="middle" fill="#1A2E05" font-size="12" font-weight="800">100%</text>
    <rect x="550" y="0" width="70" height="40" fill="#F87171" rx="3"/><text x="585" y="24" text-anchor="middle" fill="#fff" font-size="12" font-weight="800">17%</text>
    <rect x="620" y="0" width="70" height="40" fill="#84CC16" rx="3"/><text x="655" y="24" text-anchor="middle" fill="#1A2E05" font-size="12" font-weight="800">100%</text>
    <rect x="690" y="0" width="70" height="40" fill="#FBBF24" rx="3"/><text x="725" y="24" text-anchor="middle" fill="#78350F" font-size="12" font-weight="700">33%</text>
  </g>

  <!-- Structured Output -->
  <g transform="translate(0, 255)">
    <text x="190" y="20" text-anchor="end" fill="#431407" font-size="12" font-weight="600">Structured payloads</text>
    <rect x="200" y="0" width="70" height="40" fill="#BEF264" rx="3"/><text x="235" y="24" text-anchor="middle" fill="#365314" font-size="12" font-weight="700">75%</text>
    <rect x="270" y="0" width="70" height="40" fill="#A3E635" rx="3"/><text x="305" y="24" text-anchor="middle" fill="#365314" font-size="12" font-weight="700">92%</text>
    <rect x="340" y="0" width="70" height="40" fill="#84CC16" rx="3"/><text x="375" y="24" text-anchor="middle" fill="#1A2E05" font-size="12" font-weight="800">100%</text>
    <rect x="410" y="0" width="70" height="40" fill="#84CC16" rx="3"/><text x="445" y="24" text-anchor="middle" fill="#1A2E05" font-size="12" font-weight="800">100%</text>
    <rect x="480" y="0" width="70" height="40" fill="#84CC16" rx="3"/><text x="515" y="24" text-anchor="middle" fill="#1A2E05" font-size="12" font-weight="800">100%</text>
    <rect x="550" y="0" width="70" height="40" fill="#84CC16" rx="3"/><text x="585" y="24" text-anchor="middle" fill="#1A2E05" font-size="12" font-weight="800">100%</text>
    <rect x="620" y="0" width="70" height="40" fill="#BEF264" rx="3"/><text x="655" y="24" text-anchor="middle" fill="#365314" font-size="12" font-weight="700">83%</text>
    <rect x="690" y="0" width="70" height="40" fill="#84CC16" rx="3"/><text x="725" y="24" text-anchor="middle" fill="#1A2E05" font-size="12" font-weight="800">100%</text>
  </g>

  <!-- Compound -->
  <g transform="translate(0, 300)">
    <text x="190" y="20" text-anchor="end" fill="#431407" font-size="12" font-weight="600">Multi-step requests</text>
    <rect x="200" y="0" width="70" height="40" fill="#BEF264" rx="3"/><text x="235" y="24" text-anchor="middle" fill="#365314" font-size="12" font-weight="700">83%</text>
    <rect x="270" y="0" width="70" height="40" fill="#84CC16" rx="3"/><text x="305" y="24" text-anchor="middle" fill="#1A2E05" font-size="12" font-weight="800">100%</text>
    <rect x="340" y="0" width="70" height="40" fill="#FCD34D" rx="3"/><text x="375" y="24" text-anchor="middle" fill="#78350F" font-size="12" font-weight="700">67%</text>
    <rect x="410" y="0" width="70" height="40" fill="#BEF264" rx="3"/><text x="445" y="24" text-anchor="middle" fill="#365314" font-size="12" font-weight="700">83%</text>
    <rect x="480" y="0" width="70" height="40" fill="#BEF264" rx="3"/><text x="515" y="24" text-anchor="middle" fill="#365314" font-size="12" font-weight="700">83%</text>
    <rect x="550" y="0" width="70" height="40" fill="#84CC16" rx="3"/><text x="585" y="24" text-anchor="middle" fill="#1A2E05" font-size="12" font-weight="800">100%</text>
    <rect x="620" y="0" width="70" height="40" fill="#BEF264" rx="3"/><text x="655" y="24" text-anchor="middle" fill="#365314" font-size="12" font-weight="700">83%</text>
    <rect x="690" y="0" width="70" height="40" fill="#84CC16" rx="3"/><text x="725" y="24" text-anchor="middle" fill="#1A2E05" font-size="12" font-weight="800">100%</text>
  </g>

  <!-- Robustness -->
  <g transform="translate(0, 345)">
    <text x="190" y="20" text-anchor="end" fill="#431407" font-size="12" font-weight="600">Typos & noise</text>
    <rect x="200" y="0" width="70" height="40" fill="#84CC16" rx="3"/><text x="235" y="24" text-anchor="middle" fill="#1A2E05" font-size="12" font-weight="800">100%</text>
    <rect x="270" y="0" width="70" height="40" fill="#84CC16" rx="3"/><text x="305" y="24" text-anchor="middle" fill="#1A2E05" font-size="12" font-weight="800">100%</text>
    <rect x="340" y="0" width="70" height="40" fill="#84CC16" rx="3"/><text x="375" y="24" text-anchor="middle" fill="#1A2E05" font-size="12" font-weight="800">100%</text>
    <rect x="410" y="0" width="70" height="40" fill="#84CC16" rx="3"/><text x="445" y="24" text-anchor="middle" fill="#1A2E05" font-size="12" font-weight="800">100%</text>
    <rect x="480" y="0" width="70" height="40" fill="#84CC16" rx="3"/><text x="515" y="24" text-anchor="middle" fill="#1A2E05" font-size="12" font-weight="800">100%</text>
    <rect x="550" y="0" width="70" height="40" fill="#84CC16" rx="3"/><text x="585" y="24" text-anchor="middle" fill="#1A2E05" font-size="12" font-weight="800">100%</text>
    <rect x="620" y="0" width="70" height="40" fill="#84CC16" rx="3"/><text x="655" y="24" text-anchor="middle" fill="#1A2E05" font-size="12" font-weight="800">100%</text>
    <rect x="690" y="0" width="70" height="40" fill="#84CC16" rx="3"/><text x="725" y="24" text-anchor="middle" fill="#1A2E05" font-size="12" font-weight="800">100%</text>
  </g>

  <!-- Callouts -->
  <g>
    <rect x="770" y="255" width="115" height="40" rx="6" fill="#84CC16" fill-opacity="0.12" stroke="#84CC16" stroke-width="1"/>
    <text x="827" y="272" text-anchor="middle" fill="#3F6212" font-size="9" font-weight="700">CEILING</text>
    <text x="827" y="286" text-anchor="middle" fill="#3F6212" font-size="9">4 of 6 tasks</text>

    <rect x="770" y="345" width="115" height="40" rx="6" fill="#84CC16" fill-opacity="0.12" stroke="#84CC16" stroke-width="1"/>
    <text x="827" y="362" text-anchor="middle" fill="#3F6212" font-size="9" font-weight="700">SOLVED</text>
    <text x="827" y="376" text-anchor="middle" fill="#3F6212" font-size="9">every model</text>

    <rect x="770" y="210" width="115" height="40" rx="6" fill="#EF4444" fill-opacity="0.12" stroke="#EF4444" stroke-width="1"/>
    <text x="827" y="227" text-anchor="middle" fill="#7F1D1D" font-size="9" font-weight="700">100pp SPREAD</text>
    <text x="827" y="241" text-anchor="middle" fill="#7F1D1D" font-size="9">price doesn't help</text>
  </g>

  <!-- Caption -->
  <text x="450" y="465" text-anchor="middle" fill="#78716C" font-size="11">On 4 of 6 task types, every model from $0.15/M to $15/M performed within spitting distance.</text>
  <text x="450" y="482" text-anchor="middle" fill="#78716C" font-size="11">The real differences show up on ambiguity and conversational input — and price doesn't solve them.</text>
</svg>
