<svg xmlns="http://www.w3.org/2000/svg" viewBox="0 0 1600 900" font-family="-apple-system, BlinkMacSystemFont, 'Inter', 'Helvetica Neue', sans-serif">
  <defs>
    <linearGradient id="bgGrad" x1="0%" y1="0%" x2="100%" y2="100%" gradientTransform="rotate(20)">
      <stop offset="0%" stop-color="#5AAE8A"/>
      <stop offset="50%" stop-color="#48946F"/>
      <stop offset="100%" stop-color="#3A7A56"/>
    </linearGradient>
    <symbol id="hdHeart" viewBox="0 0 512 512">
      <path d="M256 380 C 200 340, 152 300, 136 250 C 120 200, 144 165, 184 160 C 216 155, 240 165, 256 185 C 272 165, 296 155, 328 160 C 368 165, 392 200, 376 250 C 360 300, 312 340, 256 380 Z" fill="currentColor"/>
    </symbol>
  </defs>
  <rect width="1600" height="900" fill="url(#bgGrad)"/>

  <g color="rgba(255,255,255,0.06)">
    <use href="#hdHeart" x="60"   y="40"   width="70"  height="70"/>
    <use href="#hdHeart" x="280"  y="780"  width="100" height="100"/>
    <use href="#hdHeart" x="700"  y="820"  width="80"  height="80"/>
    <use href="#hdHeart" x="1100" y="780"  width="100" height="100"/>
    <use href="#hdHeart" x="1480" y="380"  width="60"  height="60"/>
    <use href="#hdHeart" x="40"   y="430"  width="80"  height="80"/>
  </g>

  <line x1="80" y1="58" x2="1520" y2="58" stroke="rgba(255,255,255,0.3)" stroke-width="0.75"/>
  <text x="80" y="44" fill="rgba(255,255,255,0.85)" font-size="16" letter-spacing="2" font-weight="700">HONEYDEW &#183; ARCHITECTURE &#183; MAY 2026</text>
  <text x="1520" y="44" text-anchor="end" fill="rgba(255,255,255,0.85)" font-size="16" font-weight="500" font-style="italic">Pete Ghiorse</text>

  <text x="800" y="102" text-anchor="middle" fill="#FFFFFF" font-size="48" font-weight="700" letter-spacing="-0.5">The Stack Underneath</text>
  <text x="800" y="142" text-anchor="middle" fill="rgba(255,255,255,0.92)" font-size="22" font-weight="400">What $2,500 actually built &#8212; one solo dev, an LLM agent, a family graph.</text>

  <g transform="translate(80, 180)">
    <text x="0" y="0" fill="rgba(255,255,255,0.8)" font-size="16" letter-spacing="2" font-weight="700">INPUTS</text>
    <g transform="translate(0, 18)">
      <rect width="320" height="68" rx="10" fill="rgba(255,255,255,0.22)" stroke="rgba(255,255,255,0.45)" stroke-width="1.5"/>
      <text x="18" y="30" fill="#FFFFFF" font-size="18" font-weight="700">VOICE</text>
      <text x="18" y="54" fill="rgba(255,255,255,0.9)" font-size="16">Whisper transcription</text>
    </g>
    <g transform="translate(360, 18)">
      <rect width="320" height="68" rx="10" fill="rgba(255,255,255,0.22)" stroke="rgba(255,255,255,0.45)" stroke-width="1.5"/>
      <text x="18" y="30" fill="#FFFFFF" font-size="18" font-weight="700">TEXT</text>
      <text x="18" y="54" fill="rgba(255,255,255,0.9)" font-size="16">Typed chat &#183; mobile + web</text>
    </g>
    <g transform="translate(720, 18)">
      <rect width="320" height="68" rx="10" fill="rgba(255,255,255,0.22)" stroke="rgba(255,255,255,0.45)" stroke-width="1.5"/>
      <text x="18" y="30" fill="#FFFFFF" font-size="18" font-weight="700">PHOTO</text>
      <text x="18" y="54" fill="rgba(255,255,255,0.9)" font-size="16">Vision OCR &#183; handwritten</text>
    </g>
    <g transform="translate(1080, 18)">
      <rect width="360" height="68" rx="10" fill="rgba(255,255,255,0.22)" stroke="rgba(255,255,255,0.45)" stroke-width="1.5"/>
      <text x="18" y="30" fill="#FFFFFF" font-size="18" font-weight="700">CALENDAR EVENT</text>
      <text x="18" y="54" fill="rgba(255,255,255,0.9)" font-size="16">Google / Apple / Outlook</text>
    </g>
  </g>

  <g stroke="rgba(255,255,255,0.7)" stroke-width="2" fill="none">
    <line x1="800" y1="285" x2="800" y2="315"/>
    <polygon points="793,310 800,325 807,310" fill="rgba(255,255,255,0.7)"/>
  </g>

  <g transform="translate(80, 340)">
    <rect width="440" height="220" rx="14" fill="rgba(255,255,255,0.98)" stroke="rgba(255,255,255,0.5)" stroke-width="1.5"/>
    <text x="24" y="38" fill="#5AAE8A" font-size="15" letter-spacing="2" font-weight="700">STAGE 01</text>
    <text x="24" y="80" fill="#1F3D2A" font-size="32" font-weight="700">INTERPRET</text>
    <line x1="24" y1="96" x2="200" y2="96" stroke="#5AAE8A" stroke-width="2"/>
    <text x="24" y="128" fill="#3D5546" font-size="18">&#8226; LLM router (GPT &#183; Claude)</text>
    <text x="24" y="158" fill="#3D5546" font-size="18">&#8226; Family context + memory recall</text>
    <text x="24" y="188" fill="#3D5546" font-size="18">&#8226; Anaphora resolution</text>
    <text x="24" y="212" fill="#3A7A56" font-size="16" font-weight="700" font-style="italic">"Add it to that list" &#x2192; resolved</text>
  </g>

  <g stroke="rgba(255,255,255,0.9)" stroke-width="3" fill="none">
    <line x1="520" y1="450" x2="568" y2="450"/>
    <polygon points="568,441 585,450 568,459" fill="rgba(255,255,255,0.9)"/>
  </g>

  <g transform="translate(580, 340)">
    <rect width="440" height="220" rx="14" fill="rgba(255,255,255,0.98)" stroke="rgba(255,255,255,0.5)" stroke-width="1.5"/>
    <text x="24" y="38" fill="#5AAE8A" font-size="15" letter-spacing="2" font-weight="700">STAGE 02</text>
    <text x="24" y="80" fill="#1F3D2A" font-size="32" font-weight="700">PLAN</text>
    <line x1="24" y1="96" x2="130" y2="96" stroke="#5AAE8A" stroke-width="2"/>
    <text x="24" y="128" fill="#3D5546" font-size="18">&#8226; 27-tool catalog</text>
    <text x="24" y="158" fill="#3D5546" font-size="18">&#8226; Multi-action batching</text>
    <text x="24" y="188" fill="#3D5546" font-size="18">&#8226; Conflict + idempotency check</text>
    <text x="24" y="212" fill="#3A7A56" font-size="16" font-weight="700" font-style="italic">Clarifies under doubt</text>
  </g>

  <g stroke="rgba(255,255,255,0.9)" stroke-width="3" fill="none">
    <line x1="1020" y1="450" x2="1068" y2="450"/>
    <polygon points="1068,441 1085,450 1068,459" fill="rgba(255,255,255,0.9)"/>
  </g>

  <g transform="translate(1080, 340)">
    <rect width="440" height="220" rx="14" fill="rgba(255,255,255,0.98)" stroke="rgba(255,255,255,0.5)" stroke-width="1.5"/>
    <text x="24" y="38" fill="#5AAE8A" font-size="15" letter-spacing="2" font-weight="700">STAGE 03</text>
    <text x="24" y="80" fill="#1F3D2A" font-size="32" font-weight="700">EXECUTE</text>
    <line x1="24" y1="96" x2="170" y2="96" stroke="#5AAE8A" stroke-width="2"/>
    <text x="24" y="128" fill="#3D5546" font-size="18">&#8226; Postgres + Redis writes</text>
    <text x="24" y="158" fill="#3D5546" font-size="18">&#8226; Calendar / Reminder APIs</text>
    <text x="24" y="188" fill="#3D5546" font-size="18">&#8226; WebSocket fanout to devices</text>
    <text x="24" y="212" fill="#3A7A56" font-size="16" font-weight="700" font-style="italic">~700 ms p50, prompt to confirmation</text>
  </g>

  <g stroke="rgba(255,255,255,0.9)" stroke-width="2.5" fill="none">
    <path d="M 1180 560 L 1180 612 L 480 612 L 480 640"/>
    <polygon points="471,628 480,645 489,628" fill="rgba(255,255,255,0.9)"/>
  </g>
  <text x="660" y="606" fill="rgba(255,255,255,0.95)" font-size="15" font-style="italic">writes state &#183; appends memory</text>
  <g stroke="rgba(255,255,255,0.9)" stroke-width="2.5" fill="none">
    <path d="M 1250 560 L 1250 612 L 1120 612 L 1120 640"/>
    <polygon points="1111,628 1120,645 1129,628" fill="rgba(255,255,255,0.9)"/>
  </g>

  <g stroke="rgba(255,255,255,0.7)" stroke-width="2" fill="none" stroke-dasharray="6,4">
    <path d="M 380 640 L 380 595 L 260 595 L 260 560"/>
    <polygon points="251,575 260,558 269,575" fill="rgba(255,255,255,0.7)"/>
  </g>
  <text x="100" y="585" fill="rgba(255,255,255,0.8)" font-size="15" font-style="italic">context + priors feed next turn</text>

  <g transform="translate(200, 640)">
    <rect width="560" height="180" rx="14" fill="rgba(255,255,255,0.98)" stroke="rgba(255,255,255,0.5)" stroke-width="1.5"/>
    <text x="24" y="38" fill="#5AAE8A" font-size="15" letter-spacing="2" font-weight="700">STATE</text>
    <text x="24" y="82" fill="#1F3D2A" font-size="30" font-weight="700">FAMILY GRAPH</text>
    <line x1="24" y1="98" x2="200" y2="98" stroke="#5AAE8A" stroke-width="2"/>
    <text x="24" y="130" fill="#3D5546" font-size="18">&#8226; Multi-tenant Postgres &#183; per-family rows</text>
    <text x="24" y="158" fill="#3A7A56" font-size="16" font-weight="700" font-style="italic">Permissioned across the household</text>
  </g>

  <g transform="translate(840, 640)">
    <rect width="560" height="180" rx="14" fill="rgba(255,255,255,0.98)" stroke="rgba(255,255,255,0.5)" stroke-width="1.5"/>
    <text x="24" y="38" fill="#5AAE8A" font-size="15" letter-spacing="2" font-weight="700">LOOP</text>
    <text x="24" y="82" fill="#1F3D2A" font-size="30" font-weight="700">MEMORY + LEARNING</text>
    <line x1="24" y1="98" x2="270" y2="98" stroke="#5AAE8A" stroke-width="2"/>
    <text x="24" y="130" fill="#3D5546" font-size="18">&#8226; Per-family vector store &#183; prior turns</text>
    <text x="24" y="158" fill="#3A7A56" font-size="16" font-weight="700" font-style="italic">"Dew remembers" &#x2014; without a personal LLM</text>
  </g>

  <text x="1545" y="445" fill="rgba(255,255,255,0.95)" font-size="16" font-weight="700" text-anchor="end">response</text>
  <text x="1545" y="465" fill="rgba(255,255,255,0.85)" font-size="14" text-anchor="end">+ effects on devices</text>
  <g stroke="rgba(255,255,255,0.9)" stroke-width="3" fill="none">
    <line x1="1520" y1="455" x2="1555" y2="455"/>
  </g>

  <line x1="80" y1="855" x2="1520" y2="855" stroke="rgba(255,255,255,0.3)" stroke-width="0.75"/>
  <text x="800" y="884" text-anchor="middle" fill="rgba(255,255,255,0.85)" font-size="16" letter-spacing="3" font-weight="700">27 TOOLS &#183; ONE LOOP &#183; ONE SOLO DEV &#183; GETHONEYDEW.APP</text>
</svg>
